<svg xmlns="http://www.w3.org/2000/svg" xmlns:xlink="http://www.w3.org/1999/xlink" xml:space="preserve" width="189px" height="189px" version="1.1" style="shape-rendering:geometricPrecision; text-rendering:geometricPrecision; image-rendering:optimizeQuality; fill-rule:evenodd; clip-rule:evenodd" viewBox="0 0 124.33 124.33">
 <defs>
  <style type="text/css">
   <![CDATA[
    .fil0 {fill:#0C9451}
   ]]>
  </style>
 </defs>
 <g id="Camada_x0020_1">
  <metadata id="CorelCorpID_0Corel-Layer"/>
  <path class="fil0" d="M0 124.33l62.16 0c34.2,0 62.17,-27.97 62.17,-62.17l0 -62.16 -62.17 0c-34.19,0 -62.16,27.97 -62.16,62.16l0 62.17zm26.44 -52.93c-3.5,-3.44 -3.55,-9.06 -0.11,-12.56 3.44,-3.5 9.06,-3.54 12.56,-0.11l14.76 14.49 32.05 -31.98c3.47,-3.46 9.1,-3.44 12.55,0.03 3.46,3.48 3.45,9.1 -0.03,12.56l-37.34 37.27c-5.45,5.22 -8.94,5.14 -14,0.36l-20.44 -20.06z"/>
 </g>
</svg>