<svg width="28" height="20" viewBox="0 0 28 20" fill="none" xmlns="http://www.w3.org/2000/svg">
<g id="Logo" clip-path="url(#clip0_211_2050)">
<path id="Vector" fill-rule="evenodd" clip-rule="evenodd" d="M7.04589 3.08385L0.0950928 9.96476C1.48538 11.3411 3.07357 12.501 4.80514 13.4085C5.28376 14.6653 6.03398 15.844 7.05579 16.8555C10.9001 20.6611 17.1329 20.6611 20.9772 16.8555C21.999 15.844 22.7492 14.6653 23.2278 13.4084C24.9594 12.501 26.5476 11.3411 27.9379 9.96476L20.9927 3.08944C20.9875 3.0843 20.9824 3.07916 20.9772 3.07402C17.1329 -0.731623 10.9001 -0.731623 7.05579 3.07402C7.0525 3.0773 7.04919 3.08057 7.04589 3.08385ZM20.3121 14.6499C18.2865 15.3267 16.1602 15.6732 14.0165 15.6732C11.8728 15.6732 9.74651 15.3267 7.72095 14.6499C7.94042 14.9382 8.18272 15.2148 8.44793 15.4774C11.5234 18.5219 16.5096 18.5219 19.585 15.4774C19.8502 15.2148 20.0926 14.9382 20.3121 14.6499ZM8.59069 4.31434C9.11295 4.65591 9.66828 4.9482 10.2494 5.18649C11.4437 5.67622 12.7237 5.92828 14.0165 5.92828C15.3092 5.92828 16.5893 5.67622 17.7836 5.18649C18.3647 4.9482 18.92 4.65591 19.4423 4.31433C16.4053 1.45359 11.6277 1.4536 8.59069 4.31434Z" fill="#3B4158"/>
</g>
<defs>
<clipPath id="clip0_211_2050">
<rect width="27.8428" height="19.4899" fill="white" transform="translate(0.0950928 0.219788)"/>
</clipPath>
</defs>
</svg>
