<svg xmlns="http://www.w3.org/2000/svg" xmlns:xlink="http://www.w3.org/1999/xlink" xml:space="preserve" width="800px" height="149px" version="1.1" style="shape-rendering:geometricPrecision; text-rendering:geometricPrecision; image-rendering:optimizeQuality; fill-rule:evenodd; clip-rule:evenodd" viewBox="0 0 800 149.35">
 <defs>
  <style type="text/css">
   <![CDATA[
    .fil1 {fill:#149342}
    .fil3 {fill:#149342;fill-rule:nonzero}
    .fil0 {fill:#23693C;fill-rule:nonzero}
    .fil2 {fill:white;fill-rule:nonzero}
   ]]>
  </style>
 </defs>
 <g id="Camada_x0020_1">
  <metadata id="CorelCorpID_0Corel-Layer"/>
  <g id="_1797753698128">
   <path class="fil0" d="M233.06 61.53c0,4.98 -0.9,9.69 -2.71,14.13 -1.81,4.43 -4.28,8.29 -7.41,11.58 -3.14,3.29 -6.82,5.88 -11.06,7.77 -4.23,1.89 -8.72,2.84 -13.47,2.84l-15.4 0 0 13.15c0,2.79 -0.93,5.16 -2.78,7.1 -1.86,1.95 -4.11,2.92 -6.77,2.92 -2.67,0 -4.92,-0.97 -6.78,-2.92 -1.85,-1.94 -2.78,-4.31 -2.78,-7.1l0 -75.78c0,-2.79 0.93,-5.15 2.78,-7.09 1.86,-1.95 4.11,-2.92 6.78,-2.92l24.95 0c4.75,0 9.24,0.95 13.47,2.84 4.24,1.89 7.92,4.48 11.06,7.77 3.13,3.29 5.6,7.15 7.41,11.59 1.81,4.43 2.71,9.14 2.71,14.12zm-19.11 0c0,-2.19 -0.4,-4.28 -1.21,-6.28 -0.81,-1.99 -1.93,-3.73 -3.35,-5.23 -1.43,-1.49 -3.09,-2.66 -4.99,-3.51 -1.9,-0.85 -3.9,-1.27 -5.99,-1.27l-15.4 0 0 32.58 15.4 0c2.09,0 4.09,-0.42 5.99,-1.27 1.9,-0.85 3.56,-2.02 4.99,-3.51 1.42,-1.49 2.54,-3.21 3.35,-5.16 0.81,-1.94 1.21,-4.06 1.21,-6.35zm55.39 -12.7c4.28,0.49 8.3,1.79 12.05,3.88 3.76,2.09 6.99,4.76 9.7,8 2.71,3.24 4.85,6.92 6.41,11.06 1.57,4.13 2.36,8.49 2.36,13.08l0 26.45c0,2.69 -0.95,4.98 -2.85,6.88 -1.9,1.89 -4.04,2.84 -6.42,2.84 -3.33,0 -5.99,-1.6 -7.99,-4.78 -0.47,0.19 -0.9,0.42 -1.28,0.67 -0.38,0.25 -0.76,0.47 -1.14,0.67 -2.28,1.1 -4.61,1.94 -6.99,2.54 -2.47,0.6 -5.08,0.9 -7.84,0.9 -7.13,0 -13.5,-2.02 -19.11,-6.06 -5.61,-4.03 -9.79,-9.24 -12.55,-15.61 -0.95,-2.3 -1.68,-4.64 -2.21,-7.03 -0.52,-2.39 -0.78,-4.88 -0.78,-7.47 0,-2.59 0.26,-5.08 0.78,-7.48 0.53,-2.39 1.26,-4.73 2.21,-7.02 2.76,-6.48 6.94,-11.71 12.55,-15.69 5.61,-3.99 11.98,-5.98 19.11,-5.98 0.76,0 1.45,0 2.07,0 0.62,0 1.26,0.05 1.92,0.15zm-4.13 52.76c2.18,0 4.25,-0.43 6.2,-1.27 1.95,-0.85 3.64,-2.02 5.06,-3.52 1.43,-1.49 2.57,-3.26 3.42,-5.3 0.86,-2.04 1.29,-4.26 1.29,-6.65 0,-2.2 -0.43,-4.31 -1.29,-6.35 -0.85,-2.05 -2.02,-3.84 -3.49,-5.39 -1.47,-1.54 -3.18,-2.76 -5.13,-3.66 -1.95,-0.89 -3.97,-1.34 -6.06,-1.34 -2.09,0 -4.09,0.45 -5.99,1.34 -1.9,0.9 -3.59,2.12 -5.06,3.66 -1.48,1.55 -2.64,3.34 -3.5,5.39 -0.85,2.04 -1.28,4.15 -1.28,6.35 0,2.29 0.45,4.46 1.35,6.5 0.91,2.04 2.1,3.81 3.57,5.3 1.47,1.5 3.16,2.7 5.06,3.59 1.9,0.9 3.85,1.35 5.85,1.35zm82.2 -53.21c2.56,0 4.7,1.02 6.41,3.06 1.71,2.04 2.57,4.21 2.57,6.5 0,2.59 -0.93,4.86 -2.78,6.8 -1.86,1.95 -3.92,2.92 -6.2,2.92l-24.53 0c-1.14,0 -2.12,0.35 -2.92,1.04 -0.81,0.7 -1.22,1.7 -1.22,2.99 0,1.4 0.41,2.47 1.22,3.22 0.8,0.75 1.78,1.12 2.92,1.12l16.11 0c2.95,0 5.68,0.65 8.2,1.94 2.52,1.3 4.71,3.02 6.56,5.16 1.85,2.14 3.3,4.41 4.35,6.8 1.05,2.39 1.57,5.08 1.57,8.07 0.09,3.29 -0.45,6.38 -1.64,9.27 -1.19,2.89 -2.78,5.33 -4.78,7.32 -1.99,1.99 -4.32,3.56 -6.98,4.71 -2.67,1.14 -5.66,1.72 -8.99,1.72l-26.24 0c-2.47,0 -4.61,-0.9 -6.41,-2.69 -1.81,-1.8 -2.71,-4.04 -2.71,-6.73 0,-2.49 0.85,-4.76 2.56,-6.8 1.72,-2.04 3.81,-3.11 6.28,-3.21l26.24 0c2.56,0 3.85,-1.2 3.85,-3.59 0,-2.69 -1.29,-4.04 -3.85,-4.04l-15.69 0c-2.85,0 -5.54,-0.62 -8.06,-1.86 -2.51,-1.25 -4.7,-2.97 -6.56,-5.16 -1.85,-2.19 -3.3,-4.58 -4.34,-7.17 -1.05,-2.6 -1.57,-5.39 -1.57,-8.37 0,-2.99 0.54,-5.88 1.64,-8.67 1.09,-2.79 2.59,-5.23 4.49,-7.33 1.9,-2.09 4.13,-3.76 6.7,-5 2.57,-1.25 5.37,-1.92 8.41,-2.02l25.39 0zm59.66 0c2.57,0 4.71,1.02 6.42,3.06 1.71,2.04 2.57,4.21 2.57,6.5 0,2.59 -0.93,4.86 -2.78,6.8 -1.86,1.95 -3.92,2.92 -6.21,2.92l-24.52 0c-1.14,0 -2.12,0.35 -2.93,1.04 -0.8,0.7 -1.21,1.7 -1.21,2.99 0,1.4 0.41,2.47 1.21,3.22 0.81,0.75 1.79,1.12 2.93,1.12l16.11 0c2.95,0 5.68,0.65 8.2,1.94 2.52,1.3 4.71,3.02 6.56,5.16 1.85,2.14 3.3,4.41 4.35,6.8 1.05,2.39 1.57,5.08 1.57,8.07 0.09,3.29 -0.45,6.38 -1.64,9.27 -1.19,2.89 -2.78,5.33 -4.78,7.32 -2,1.99 -4.32,3.56 -6.99,4.71 -2.66,1.14 -5.65,1.72 -8.98,1.72l-26.24 0c-2.47,0 -4.61,-0.9 -6.41,-2.69 -1.81,-1.8 -2.71,-4.04 -2.71,-6.73 0,-2.49 0.85,-4.76 2.56,-6.8 1.71,-2.04 3.81,-3.11 6.28,-3.21l26.23 0c2.57,0 3.85,-1.2 3.85,-3.59 0,-2.69 -1.28,-4.04 -3.85,-4.04l-15.68 0c-2.85,0 -5.54,-0.62 -8.06,-1.86 -2.52,-1.25 -4.7,-2.97 -6.56,-5.16 -1.85,-2.19 -3.3,-4.58 -4.35,-7.17 -1.04,-2.6 -1.56,-5.39 -1.56,-8.37 0,-2.99 0.54,-5.88 1.64,-8.67 1.09,-2.79 2.59,-5.23 4.49,-7.33 1.9,-2.09 4.13,-3.76 6.7,-5 2.57,-1.25 5.37,-1.92 8.41,-2.02l25.38 0zm46.84 0.3c4.56,0 8.93,0.99 13.12,2.99 4.18,1.99 7.86,4.65 11.05,7.99 3.18,3.34 5.73,7.18 7.63,11.51 1.9,4.34 2.85,8.89 2.85,13.68 0,2.59 -0.93,4.63 -2.78,6.12 -1.85,1.5 -4.16,2.2 -6.92,2.1l-37.93 0c3.14,5.68 7.47,8.52 12.98,8.52 1.52,0 2.8,-0.15 3.85,-0.45 1.04,-0.3 1.97,-0.65 2.78,-1.05 0.81,-0.4 1.62,-0.74 2.42,-1.04 0.81,-0.3 1.74,-0.45 2.78,-0.45 2,0.1 3.74,0.7 5.21,1.79 1.47,1.1 2.57,2.47 3.28,4.11 0.71,1.65 0.95,3.41 0.71,5.31 -0.24,1.89 -1.07,3.63 -2.49,5.23 -2.57,2.19 -5.42,3.71 -8.56,4.56 -3.14,0.84 -6.46,1.32 -9.98,1.42 -4.56,0.2 -8.94,-0.67 -13.12,-2.62 -4.18,-1.94 -7.87,-4.58 -11.05,-7.92 -3.19,-3.34 -5.7,-7.25 -7.56,-11.73 -1.85,-4.49 -2.78,-9.12 -2.78,-13.9 0,-4.69 0.93,-9.22 2.78,-13.6 1.86,-4.39 4.35,-8.25 7.49,-11.59 3.13,-3.34 6.79,-6 10.98,-7.99 4.18,-2 8.6,-2.99 13.26,-2.99zm12.98 27.8c-1.62,-3.09 -3.52,-5.26 -5.71,-6.5 -2.19,-1.25 -4.61,-1.87 -7.27,-1.87 -2.76,0 -5.21,0.62 -7.34,1.87 -2.14,1.24 -4.02,3.41 -5.64,6.5l25.96 0z"/>
   <g>
    <path class="fil1" d="M0 149.35l74.67 0c41.07,0 74.68,-33.61 74.68,-74.68l0 -74.67 -74.68 0c-41.07,0 -74.67,33.6 -74.67,74.67l0 74.68z"/>
    <path class="fil2" d="M31.76 85.76c-4.2,-4.13 -4.26,-10.88 -0.13,-15.08 4.13,-4.2 10.89,-4.26 15.09,-0.13l17.72 17.41 38.5 -38.42c4.18,-4.16 10.93,-4.14 15.08,0.04 4.16,4.17 4.14,10.93 -0.04,15.08l-44.85 44.77c-6.55,6.27 -10.74,6.18 -16.82,0.44l-24.55 -24.11z"/>
   </g>
   <path class="fil3" d="M633.66 121.17c-2.56,0 -4.7,-0.87 -6.41,-2.62 -1.71,-1.74 -2.66,-4.06 -2.86,-6.95l0 -27.65c0.1,-4.78 1.07,-9.29 2.93,-13.53 1.85,-4.23 4.32,-7.92 7.41,-11.06 3.09,-3.14 6.71,-5.63 10.84,-7.47 4.14,-1.84 8.53,-2.86 13.19,-3.06 2.66,0 4.87,0.94 6.63,2.84 1.76,1.89 2.73,4.18 2.93,6.87 0,2.69 -0.91,4.96 -2.71,6.8 -1.81,1.85 -4.04,2.82 -6.71,2.92 -2.18,0 -4.23,0.42 -6.13,1.27 -1.9,0.84 -3.56,2.02 -4.99,3.51 -1.43,1.49 -2.57,3.26 -3.42,5.31 -0.86,2.04 -1.28,4.26 -1.28,6.65l0 27.2c-0.2,2.59 -1.12,4.73 -2.79,6.43 -1.66,1.69 -3.87,2.54 -6.63,2.54z"/>
   <path class="fil3" d="M723.42 25.81c2.47,0 4.64,0.92 6.49,2.76 1.85,1.85 2.78,4.21 2.78,7.1l0 49.18c0,4.88 -0.93,9.51 -2.78,13.9 -1.85,4.38 -4.37,8.22 -7.56,11.51 -3.18,3.28 -6.87,5.9 -11.05,7.84 -4.18,1.95 -8.56,2.92 -13.12,2.92 -4.56,0 -8.94,-0.95 -13.12,-2.84 -4.18,-1.9 -7.86,-4.49 -11.05,-7.77 -3.18,-3.29 -5.73,-7.13 -7.63,-11.51 -1.9,-4.39 -2.85,-9.07 -2.85,-14.05 0,-4.89 0.93,-9.52 2.78,-13.9 1.85,-4.39 4.37,-8.22 7.56,-11.51 3.18,-3.29 6.87,-5.91 11.05,-7.85 4.18,-1.94 8.6,-2.91 13.26,-2.91 5.7,0 10.98,1.34 15.83,4.03l0 -17.19c0,-1.29 0.26,-2.54 0.78,-3.73 0.53,-1.2 1.22,-2.25 2.07,-3.14 0.86,-0.9 1.85,-1.6 2.99,-2.09 1.15,-0.5 2.33,-0.75 3.57,-0.75zm-25.24 42.3c-2.19,0 -4.25,0.45 -6.2,1.34 -1.95,0.9 -3.66,2.12 -5.14,3.66 -1.47,1.55 -2.63,3.34 -3.49,5.39 -0.86,2.04 -1.28,4.15 -1.28,6.35 0,2.29 0.42,4.46 1.28,6.5 0.86,2.04 2.02,3.81 3.49,5.3 1.48,1.5 3.19,2.7 5.14,3.59 1.95,0.9 4.01,1.35 6.2,1.35 2.09,0 4.09,-0.45 5.99,-1.35 1.9,-0.89 3.59,-2.12 5.06,-3.66 1.48,-1.54 2.64,-3.31 3.5,-5.31 0.85,-1.99 1.28,-4.13 1.28,-6.42 0,-2.39 -0.43,-4.61 -1.28,-6.65 -0.86,-2.05 -2.02,-3.82 -3.5,-5.31 -1.47,-1.49 -3.16,-2.67 -5.06,-3.51 -1.9,-0.85 -3.9,-1.27 -5.99,-1.27z"/>
   <path class="fil3" d="M535.25 114.44c-0.76,1.99 -1.97,3.59 -3.63,4.78 -1.67,1.2 -3.45,1.8 -5.35,1.8 -1.81,0 -3.57,-0.65 -5.28,-1.95 -1.71,-1.29 -2.95,-2.83 -3.7,-4.63l-29.81 -75.18c-0.95,-2.59 -0.88,-5.16 0.22,-7.7 1.09,-2.54 2.87,-4.36 5.34,-5.45 2.48,-1 4.92,-0.92 7.35,0.22 2.42,1.15 4.11,3.07 5.06,5.76l20.82 51.11 20.53 -51.11c0.95,-2.69 2.64,-4.61 5.06,-5.76 2.43,-1.14 4.88,-1.22 7.35,-0.22 2.47,1.09 4.23,2.91 5.27,5.45 1.05,2.54 1.1,5.11 0.15,7.7l-29.38 75.18zm52.54 -65.76c4.56,0 8.94,0.99 13.12,2.99 4.18,1.99 7.87,4.65 11.05,7.99 3.19,3.34 5.73,7.18 7.63,11.51 1.9,4.34 2.85,8.89 2.85,13.68 0,2.59 -0.92,4.63 -2.78,6.12 -1.85,1.5 -4.16,2.2 -6.92,2.1l-37.93 0c3.14,5.68 7.47,8.52 12.98,8.52 1.52,0 2.81,-0.15 3.85,-0.45 1.05,-0.3 1.97,-0.65 2.78,-1.05 0.81,-0.4 1.62,-0.74 2.43,-1.04 0.8,-0.3 1.73,-0.45 2.78,-0.45 1.99,0.1 3.73,0.7 5.2,1.79 1.47,1.1 2.57,2.47 3.28,4.11 0.71,1.65 0.95,3.41 0.71,5.31 -0.23,1.89 -1.07,3.63 -2.49,5.23 -2.57,2.19 -5.42,3.71 -8.56,4.56 -3.13,0.84 -6.46,1.32 -9.98,1.42 -4.56,0.2 -8.94,-0.67 -13.12,-2.62 -4.18,-1.94 -7.87,-4.58 -11.05,-7.92 -3.18,-3.34 -5.7,-7.25 -7.56,-11.73 -1.85,-4.49 -2.78,-9.12 -2.78,-13.9 0,-4.69 0.93,-9.22 2.78,-13.6 1.86,-4.39 4.35,-8.25 7.49,-11.59 3.14,-3.34 6.8,-6 10.98,-7.99 4.18,-2 8.6,-2.99 13.26,-2.99zm12.98 27.8c-1.62,-3.09 -3.52,-5.26 -5.71,-6.5 -2.18,-1.25 -4.61,-1.87 -7.27,-1.87 -2.76,0 -5.2,0.62 -7.34,1.87 -2.14,1.24 -4.02,3.41 -5.64,6.5l25.96 0z"/>
   <path class="fil3" d="M745.27 67.68c-4.04,0 -7.31,-3.27 -7.31,-7.3 0,-4.04 3.27,-7.31 7.31,-7.31l47.43 0c4.03,0 7.3,3.27 7.3,7.31 0,4.03 -3.27,7.3 -7.3,7.3l-47.43 0zm0 24.07c-4.04,0 -7.31,-3.27 -7.31,-7.3 0,-4.04 3.27,-7.31 7.31,-7.31l47.43 0c4.03,0 7.3,3.27 7.3,7.31 0,4.03 -3.27,7.3 -7.3,7.3l-47.43 0zm0 24.54c-4.04,0 -7.31,-3.27 -7.31,-7.31 0,-4.03 3.27,-7.3 7.31,-7.3l47.43 0c4.03,0 7.3,3.27 7.3,7.3 0,4.04 -3.27,7.31 -7.3,7.31l-47.43 0z"/>
  </g>
 </g>
</svg>